PathFileType	4	(X/Y/Z)	D:/2025/Ayumi_22_01_2025/22-01-2025/static_00_hjc.trc	
DataRate	CameraRate	NumFrames	NumMarkers	Units	OrigDataRate	OrigDataStartFrame	OrigNumFrames	
200.00	200.00	4	66	mm	200.00	140	352	
Frame#	Time	FHD			LBHD			RBHD			LBAR			RASI			RSACR			LSACR			LASI			USACR			C7			CLAV			T10			RSHO			LSHO			LTHI1			LTHI3			LTHI2			LLFC			LTIB1			LTIB2			LTIB3			LMMAL			LLMAL			LHEE			LMT1			LMT5			LMT3			RTHI1			RTHI2			RTHI3			RLFC			RMFC			RTIB1			RTIB3			RTIB2			RLMAL			RMMAL			RHEE			RMT5			RMT1			RMT3			LMEP			LLEP			LDUPA			LMUPA			LUUPA			LUL			LRAD			LRFIN			RUL			RRAD			RUFIN			RMEP			RLEP			RMUPA			RDUPA			RUUPA			LMFC			RBAR			*59			LAJC			RAJC			LKJC			RKJC			LHJC			RHJC			
		X1	Y1	Z1	X2	Y2	Z2	X3	Y3	Z3	X4	Y4	Z4	X5	Y5	Z5	X6	Y6	Z6	X7	Y7	Z7	X8	Y8	Z8	X9	Y9	Z9	X10	Y10	Z10	X11	Y11	Z11	X12	Y12	Z12	X13	Y13	Z13	X14	Y14	Z14	X15	Y15	Z15	X16	Y16	Z16	X17	Y17	Z17	X18	Y18	Z18	X19	Y19	Z19	X20	Y20	Z20	X21	Y21	Z21	X22	Y22	Z22	X23	Y23	Z23	X24	Y24	Z24	X25	Y25	Z25	X26	Y26	Z26	X27	Y27	Z27	X28	Y28	Z28	X29	Y29	Z29	X30	Y30	Z30	X31	Y31	Z31	X32	Y32	Z32	X33	Y33	Z33	X34	Y34	Z34	X35	Y35	Z35	X36	Y36	Z36	X37	Y37	Z37	X38	Y38	Z38	X39	Y39	Z39	X40	Y40	Z40	X41	Y41	Z41	X42	Y42	Z42	X43	Y43	Z43	X44	Y44	Z44	X45	Y45	Z45	X46	Y46	Z46	X47	Y47	Z47	X48	Y48	Z48	X49	Y49	Z49	X50	Y50	Z50	X51	Y51	Z51	X52	Y52	Z52	X53	Y53	Z53	X54	Y54	Z54	X55	Y55	Z55	X56	Y56	Z56	X57	Y57	Z57	X58	Y58	Z58	X59	Y59	Z59	X60	Y60	Z60	X61	Y61	Z61	X62	Y62	Z62	X63	Y63	Z63	X64	Y64	Z64	X65	Y65	Z65	X66	Y66	Z66	

133	0.660	108.66639	969.01599	1611.89392	126.72128	908.50806	1594.99207	145.27304	1039.51245	1583.60229	1041.00439	2031.59338	20.01312	161.90555	1103.12366	927.33490	322.08560	1016.00354	958.85773	319.00781	941.98853	960.65417	148.47922	866.03442	912.40088	314.24402	979.93732	970.45178	297.13025	964.61871	1401.23962	162.58163	981.76105	1329.24646	319.66541	974.22809	1117.49329	236.17441	1113.68701	1406.12854	215.59547	831.74146	1398.49939	236.80881	807.87146	606.43964	261.43802	819.10687	546.09308	210.73392	818.29138	545.79120	229.47679	841.01965	449.30692	256.38458	819.70483	233.62311	306.67529	815.62836	232.55336	279.94238	825.85352	173.52965	284.28897	914.70721	71.81866	297.86612	843.43689	69.63298	340.98984	881.71582	33.99742	143.84828	873.70313	39.14115	169.43143	796.98883	26.82839	144.84151	837.71796	37.24689	257.25574	1156.96899	608.01343	229.43420	1149.32129	549.34912	281.21729	1147.52551	547.72394	239.99352	1125.73035	454.99527	247.67490	1024.45251	449.28738	271.12085	1159.83923	277.28427	294.19598	1155.63599	215.28888	321.88977	1160.64270	274.89789	307.57666	1134.94446	73.61172	276.85596	1063.99817	75.60952	351.60117	1095.36511	28.39043	178.77295	1179.43250	29.33705	151.10176	1115.53064	37.70206	156.17174	1148.27966	36.00816	264.73108	1374.98523	1276.84851	303.40839	1378.27417	1337.17517	312.97806	1278.44910	1350.28235	309.87308	1218.15161	1362.16736	328.37109	1208.37085	1317.07385	232.06590	327.23923	1334.87671	168.16104	320.05319	1352.91028	179.51451	245.93745	1349.63281	282.73767	1612.35681	1338.25830	222.40887	1613.52014	1354.45056	221.72263	1687.25500	1351.22583	203.01991	581.41199	1278.57178	253.75883	564.03839	1329.92383	252.67418	644.96124	1361.78015	282.46805	640.63312	1322.29004	268.69653	704.80322	1367.95740	241.98462	939.61230	442.12405							291.07755	879.07205	70.72582	292.21631	1099.47131	74.61062	235.73071	890.31598	445.71548	243.83421	1075.09143	452.14133	233.74352	904.01147	936.52753	241.99557	1059.56360	943.09631 
134	0.665	108.62749	969.01642	1611.87122	126.67077	908.50305	1594.98340	145.24104	1039.50073	1583.61084	1041.00635	2031.55505	20.03239	161.91281	1103.11853	927.34674	322.09973	1016.02368	958.83356	319.01736	942.00543	960.65533	148.49274	866.02014	912.40186	314.27487	979.95941	970.43762	297.09726	964.62177	1401.26648	162.58157	981.74957	1329.23987	319.65488	974.24133	1117.49854	236.15700	1113.68225	1406.15271	215.57266	831.74805	1398.50793	236.81996	807.86975	606.43286	261.42874	819.10547	546.10803	210.73828	818.29761	545.80499	229.47139	841.02161	449.30930	256.39664	819.71051	233.60425	306.68063	815.62897	232.52983	279.94614	825.85101	173.54289	284.29623	914.71765	71.79810	297.86014	843.43640	69.63361	341.00412	881.73938	33.97849	143.86609	873.67993	39.18270	169.42670	796.99005	26.84142	144.85188	837.73663	37.23983	257.25061	1156.97559	608.01489	229.47980	1149.32007	549.32031	281.19812	1147.53442	547.73169	239.99203	1125.73303	455.02032	247.64517	1024.47290	449.30978	271.11169	1159.83337	277.29510	294.20764	1155.62964	215.28654	321.96292	1160.75586	274.96777	307.58099	1134.94360	73.61211	276.83337	1063.99219	75.62044	351.59186	1095.35303	28.40019	178.78207	1179.42834	29.33379	151.10144	1115.54565	37.71445	156.16692	1148.26855	36.00931	264.73834	1374.98657	1276.90442	303.41241	1378.27490	1337.21326	312.96341	1278.45142	1350.29761	309.88547	1218.15381	1362.16870	328.36133	1208.36133	1317.11096	232.03906	327.23178	1334.97449	168.13625	320.05673	1353.02942	179.56940	245.90117	1349.72070	282.71564	1612.34473	1338.36499	222.52950	1613.08826	1354.40198	221.71141	1687.24463	1351.32935	203.04129	581.38483	1278.61804	253.78288	564.03815	1329.94397	252.67331	644.97418	1361.82422	282.47800	640.63965	1322.32275	268.66534	704.82288	1367.98877	241.96558	939.62622	442.13083							291.07819	879.07703	70.71585	292.20718	1099.46790	74.61628	235.71848	890.32391	445.72006	243.81860	1075.10297	452.16505	233.75505	904.01279	936.52859	242.00627	1059.57111	943.09015 
135	0.670	108.60819	969.00317	1611.86389	126.64092	908.47839	1594.93726	145.10252	1039.90088	1583.62476	1040.99756	2031.56226	20.04777	161.89563	1103.14038	927.36560	322.10959	1016.03455	958.84515	319.02692	942.01569	960.65680	148.49850	866.02954	912.40753	314.29376	979.97797	970.40393	297.07727	964.60242	1401.28052	162.57840	981.76025	1329.23242	319.68182	974.23572	1117.51672	236.15797	1113.66785	1406.13843	215.58261	831.76166	1398.51184	236.80707	807.89941	606.43683	261.42856	819.11603	546.10388	210.73819	818.31421	545.81641	229.48346	841.02826	449.31076	256.42633	819.69244	233.59465	306.68372	815.63110	232.55824	279.92877	825.85461	173.54694	284.29242	914.70435	71.80481	297.86642	843.43488	69.63455	340.99493	881.71637	33.98386	143.86179	873.68097	39.18856	169.43408	796.98938	26.83904	144.84973	837.72198	37.24790	257.26401	1156.97107	608.01208	229.44814	1149.33801	549.31757	281.19739	1147.55212	547.73358	239.98695	1125.73938	455.01398	247.65363	1024.48071	449.30414	271.11847	1159.82654	277.28372	294.23514	1155.62061	215.25603	321.72522	1160.50745	274.78311	307.57117	1134.95886	73.61980	276.84372	1063.99243	75.61781	351.59027	1095.35815	28.41314	178.77533	1179.41956	29.36370	151.09647	1115.54858	37.72940	156.17035	1148.26599	36.00453	264.73944	1375.00000	1276.94934	303.38947	1378.26599	1337.29968	312.97095	1278.45129	1350.29602	309.87289	1218.16626	1362.17407	328.35327	1208.37488	1317.11853	232.03874	327.22937	1335.06738	168.22270	320.00095	1352.96509	179.43652	245.95514	1349.85303	282.70297	1612.34155	1338.43896	222.74492	1613.08655	1354.27209	221.68449	1687.20813	1351.48523	203.01860	581.37775	1278.67542	253.76973	564.03564	1329.99622	252.64461	644.98254	1361.86267	282.46548	640.65765	1322.35742	268.62277	704.85834	1367.96533	241.97704	939.63574	442.12286							291.07942	879.06961	70.71968	292.20744	1099.47565	74.61880	235.73025	890.33200	445.71681	243.82029	1075.11005	452.15906	233.76271	904.02261	936.53217	242.00261	1059.58746	943.10538 
136	0.675	108.56506	968.96356	1611.85706	126.62949	908.44354	1594.88977	145.14749	1039.44080	1583.63074	1040.97388	2031.52515	20.04439	161.91058	1103.11890	927.35724	322.13159	1016.04333	958.80176	319.03000	942.01373	960.66431	148.49661	866.05505	912.40808	314.30203	979.98993	970.40521	297.07520	964.60889	1401.25903	162.57166	981.76404	1329.22754	319.69391	974.23059	1117.52954	236.13634	1113.67041	1406.16016	215.39253	831.58612	1398.74707	236.80830	807.89758	606.45258	261.44702	819.10162	546.11902	210.74561	818.30475	545.80383	229.48299	841.03363	449.31390	256.44049	819.70386	233.59814	306.67725	815.63892	232.53180	279.94162	825.85345	173.53543	284.32642	914.69574	71.78934	297.86349	843.44025	69.62880	340.99850	881.72009	33.98087	143.86324	873.69305	39.17055	169.42416	796.99493	26.83669	144.84372	837.71686	37.26105	257.26190	1156.99219	607.99274	229.40752	1149.34753	549.35699	281.23401	1147.54370	547.69849	239.99872	1125.75391	454.98965	247.63242	1024.49329	449.32230	271.11536	1159.84387	277.28101	294.21069	1155.63721	215.28877	321.99039	1160.77429	274.94342	307.56378	1134.95972	73.63456	276.85303	1063.99951	75.61213	351.60074	1095.36572	28.38775	178.76514	1179.43225	29.36044	151.10042	1115.54065	37.71782	156.16954	1148.27234	36.00447	264.73648	1375.02148	1276.98547	303.37885	1378.26794	1337.33215	312.95065	1278.45703	1350.31580	309.87659	1218.16162	1362.19482	328.33908	1208.36426	1317.15991	232.02988	327.22662	1335.15552	168.19382	319.99356	1353.10693	179.43103	245.95831	1349.94141	282.65573	1612.30872	1338.59326	222.71671	1613.10095	1354.34619	221.67532	1687.21167	1351.55774	203.02841	581.37451	1278.71350	253.72766	564.03302	1330.05249	252.63033	644.98663	1361.90198	282.45679	640.66693	1322.39880	268.62531	704.85431	1368.03467	241.96562	939.64429	442.13324							291.09496	879.06799	70.70907	292.20840	1099.47961	74.62334	235.72430	890.33896	445.72357	243.81557	1075.12360	452.15598	233.76331	904.03439	936.53619	242.02109	1059.58112	943.07950 
